<?xml version="1.0" encoding="UTF-8" standalone="no"?>
<!DOCTYPE svg PUBLIC "-//W3C//DTD SVG 1.1//EN"
 "http://www.w3.org/Graphics/SVG/1.1/DTD/svg11.dtd">
<!-- Generated by graphviz version 4.0.0 (20220529.0937)
 -->
<!-- Title: dependency&#45;cruiser output Pages: 1 -->
<svg width="1006pt" height="461pt"
 viewBox="0.00 0.00 1005.50 460.89" xmlns="http://www.w3.org/2000/svg" xmlns:xlink="http://www.w3.org/1999/xlink">
<g id="graph0" class="graph" transform="scale(1 1) rotate(0) translate(4 456.89)">
<title>dependency&#45;cruiser output</title>
<polygon fill="white" stroke="transparent" points="-4,4 -4,-456.89 1001.5,-456.89 1001.5,4 -4,4"/>
<g id="clust1" class="cluster">
<title>cluster_src</title>
<path fill="#ffffff" stroke="black" stroke-width="2" d="M20,-18.89C20,-18.89 977.5,-18.89 977.5,-18.89 983.5,-18.89 989.5,-24.89 989.5,-30.89 989.5,-30.89 989.5,-432.89 989.5,-432.89 989.5,-438.89 983.5,-444.89 977.5,-444.89 977.5,-444.89 20,-444.89 20,-444.89 14,-444.89 8,-438.89 8,-432.89 8,-432.89 8,-30.89 8,-30.89 8,-24.89 14,-18.89 20,-18.89"/>
<text text-anchor="middle" x="498.75" y="-433.69" font-family="Helvetica,sans-Serif" font-weight="bold" font-size="9.00">src</text>
</g>
<g id="clust5" class="cluster">
<title>cluster_src/doctor</title>
<path fill="#ffffff" stroke="black" stroke-width="2" d="M370,-126.89C370,-126.89 837,-126.89 837,-126.89 843,-126.89 849,-132.89 849,-138.89 849,-138.89 849,-316.89 849,-316.89 849,-322.89 843,-328.89 837,-328.89 837,-328.89 370,-328.89 370,-328.89 364,-328.89 358,-322.89 358,-316.89 358,-316.89 358,-138.89 358,-138.89 358,-132.89 364,-126.89 370,-126.89"/>
<text text-anchor="middle" x="603.5" y="-317.69" font-family="Helvetica,sans-Serif" font-weight="bold" font-size="9.00">doctor</text>
</g>
<g id="clust6" class="cluster">
<title>cluster_src/doctor/dtos</title>
<path fill="#ffffff" stroke="black" stroke-width="2" d="M378,-250.89C378,-250.89 494,-250.89 494,-250.89 500,-250.89 506,-256.89 506,-262.89 506,-262.89 506,-290.89 506,-290.89 506,-296.89 500,-302.89 494,-302.89 494,-302.89 378,-302.89 378,-302.89 372,-302.89 366,-296.89 366,-290.89 366,-290.89 366,-262.89 366,-262.89 366,-256.89 372,-250.89 378,-250.89"/>
<text text-anchor="middle" x="436" y="-291.69" font-family="Helvetica,sans-Serif" font-weight="bold" font-size="9.00">dtos</text>
</g>
<g id="clust3" class="cluster">
<title>cluster_src/compartida</title>
<path fill="#ffffff" stroke="black" stroke-width="2" d="M631.5,-336.89C631.5,-336.89 721.5,-336.89 721.5,-336.89 727.5,-336.89 733.5,-342.89 733.5,-348.89 733.5,-348.89 733.5,-406.89 733.5,-406.89 733.5,-412.89 727.5,-418.89 721.5,-418.89 721.5,-418.89 631.5,-418.89 631.5,-418.89 625.5,-418.89 619.5,-412.89 619.5,-406.89 619.5,-406.89 619.5,-348.89 619.5,-348.89 619.5,-342.89 625.5,-336.89 631.5,-336.89"/>
<text text-anchor="middle" x="676.5" y="-407.69" font-family="Helvetica,sans-Serif" font-weight="bold" font-size="9.00">compartida</text>
</g>
<g id="clust4" class="cluster">
<title>cluster_src/dbconection</title>
<path fill="#ffffff" stroke="black" stroke-width="2" d="M236,-96.89C236,-96.89 338,-96.89 338,-96.89 344,-96.89 350,-102.89 350,-108.89 350,-108.89 350,-136.89 350,-136.89 350,-142.89 344,-148.89 338,-148.89 338,-148.89 236,-148.89 236,-148.89 230,-148.89 224,-142.89 224,-136.89 224,-136.89 224,-108.89 224,-108.89 224,-102.89 230,-96.89 236,-96.89"/>
<text text-anchor="middle" x="287" y="-137.69" font-family="Helvetica,sans-Serif" font-weight="bold" font-size="9.00">dbconection</text>
</g>
<g id="clust2" class="cluster">
<title>cluster_src/busqueda</title>
<path fill="#ffffff" stroke="black" stroke-width="2" d="M28,-354.89C28,-354.89 91,-354.89 91,-354.89 97,-354.89 103,-360.89 103,-366.89 103,-366.89 103,-394.89 103,-394.89 103,-400.89 97,-406.89 91,-406.89 91,-406.89 28,-406.89 28,-406.89 22,-406.89 16,-400.89 16,-394.89 16,-394.89 16,-366.89 16,-366.89 16,-360.89 22,-354.89 28,-354.89"/>
<text text-anchor="middle" x="59.5" y="-395.69" font-family="Helvetica,sans-Serif" font-weight="bold" font-size="9.00">busqueda</text>
</g>
<g id="clust7" class="cluster">
<title>cluster_src/especialidad</title>
<path fill="#ffffff" stroke="black" stroke-width="2" d="M753.5,-26.89C753.5,-26.89 969.5,-26.89 969.5,-26.89 975.5,-26.89 981.5,-32.89 981.5,-38.89 981.5,-38.89 981.5,-96.89 981.5,-96.89 981.5,-102.89 975.5,-108.89 969.5,-108.89 969.5,-108.89 753.5,-108.89 753.5,-108.89 747.5,-108.89 741.5,-102.89 741.5,-96.89 741.5,-96.89 741.5,-38.89 741.5,-38.89 741.5,-32.89 747.5,-26.89 753.5,-26.89"/>
<text text-anchor="middle" x="861.5" y="-97.69" font-family="Helvetica,sans-Serif" font-weight="bold" font-size="9.00">especialidad</text>
</g>
<g id="clust8" class="cluster">
<title>cluster_src/genero</title>
<path fill="#ffffff" stroke="black" stroke-width="2" d="M400.5,-36.89C400.5,-36.89 599.5,-36.89 599.5,-36.89 605.5,-36.89 611.5,-42.89 611.5,-48.89 611.5,-48.89 611.5,-106.89 611.5,-106.89 611.5,-112.89 605.5,-118.89 599.5,-118.89 599.5,-118.89 400.5,-118.89 400.5,-118.89 394.5,-118.89 388.5,-112.89 388.5,-106.89 388.5,-106.89 388.5,-48.89 388.5,-48.89 388.5,-42.89 394.5,-36.89 400.5,-36.89"/>
<text text-anchor="middle" x="500" y="-107.69" font-family="Helvetica,sans-Serif" font-weight="bold" font-size="9.00">genero</text>
</g>
<g id="clust9" class="cluster">
<title>cluster_src/persona</title>
<path fill="#ffffff" stroke="black" stroke-width="2" d="M875.5,-116.89C875.5,-116.89 963.5,-116.89 963.5,-116.89 969.5,-116.89 975.5,-122.89 975.5,-128.89 975.5,-128.89 975.5,-186.89 975.5,-186.89 975.5,-192.89 969.5,-198.89 963.5,-198.89 963.5,-198.89 875.5,-198.89 875.5,-198.89 869.5,-198.89 863.5,-192.89 863.5,-186.89 863.5,-186.89 863.5,-128.89 863.5,-128.89 863.5,-122.89 869.5,-116.89 875.5,-116.89"/>
<text text-anchor="middle" x="919.5" y="-187.69" font-family="Helvetica,sans-Serif" font-weight="bold" font-size="9.00">persona</text>
</g>
<!-- src/app.controller.spec.ts -->
<g id="node1" class="node">
<title>src/app.controller.spec.ts</title>
<g id="a_node1"><a xlink:href="src/app.controller.spec.ts" xlink:title="app.controller.spec.ts">
<path fill="#ddfeff" stroke="black" d="M210,-371.89C210,-371.89 117,-371.89 117,-371.89 114,-371.89 111,-368.89 111,-365.89 111,-365.89 111,-359.89 111,-359.89 111,-356.89 114,-353.89 117,-353.89 117,-353.89 210,-353.89 210,-353.89 213,-353.89 216,-356.89 216,-359.89 216,-359.89 216,-365.89 216,-365.89 216,-368.89 213,-371.89 210,-371.89"/>
<text text-anchor="start" x="119" y="-360.69" font-family="Helvetica,sans-Serif" font-size="9.00">app.controller.spec.ts</text>
</a>
</g>
</g>
<!-- src/app.controller.ts -->
<g id="node2" class="node">
<title>src/app.controller.ts</title>
<g id="a_node2"><a xlink:href="src/app.controller.ts" xlink:title="app.controller.ts">
<path fill="#ddfeff" stroke="black" d="M322.5,-356.89C322.5,-356.89 251.5,-356.89 251.5,-356.89 248.5,-356.89 245.5,-353.89 245.5,-350.89 245.5,-350.89 245.5,-344.89 245.5,-344.89 245.5,-341.89 248.5,-338.89 251.5,-338.89 251.5,-338.89 322.5,-338.89 322.5,-338.89 325.5,-338.89 328.5,-341.89 328.5,-344.89 328.5,-344.89 328.5,-350.89 328.5,-350.89 328.5,-353.89 325.5,-356.89 322.5,-356.89"/>
<text text-anchor="start" x="253.5" y="-345.69" font-family="Helvetica,sans-Serif" font-size="9.00">app.controller.ts</text>
</a>
</g>
</g>
<!-- src/app.controller.spec.ts&#45;&gt;src/app.controller.ts -->
<g id="edge1" class="edge">
<title>src/app.controller.spec.ts&#45;&gt;src/app.controller.ts</title>
<path fill="none" stroke="#000000" stroke-width="2" stroke-opacity="0.200000" d="M216.03,-356.53C223.71,-355.58 231.59,-354.61 239.17,-353.67"/>
<polygon fill="#000000" fill-opacity="0.200000" stroke="#000000" stroke-width="2" stroke-opacity="0.200000" points="239.75,-355.71 245.45,-352.89 239.24,-351.55 239.75,-355.71"/>
</g>
<!-- src/app.service.ts -->
<g id="node3" class="node">
<title>src/app.service.ts</title>
<g id="a_node3"><a xlink:href="src/app.service.ts" xlink:title="app.service.ts">
<path fill="#ddfeff" stroke="black" d="M318,-386.89C318,-386.89 256,-386.89 256,-386.89 253,-386.89 250,-383.89 250,-380.89 250,-380.89 250,-374.89 250,-374.89 250,-371.89 253,-368.89 256,-368.89 256,-368.89 318,-368.89 318,-368.89 321,-368.89 324,-371.89 324,-374.89 324,-374.89 324,-380.89 324,-380.89 324,-383.89 321,-386.89 318,-386.89"/>
<text text-anchor="start" x="258" y="-375.69" font-family="Helvetica,sans-Serif" font-size="9.00">app.service.ts</text>
</a>
</g>
</g>
<!-- src/app.controller.spec.ts&#45;&gt;src/app.service.ts -->
<g id="edge2" class="edge">
<title>src/app.controller.spec.ts&#45;&gt;src/app.service.ts</title>
<path fill="none" stroke="#000000" stroke-width="2" stroke-opacity="0.200000" d="M216.03,-369.25C225.28,-370.39 234.82,-371.57 243.76,-372.67"/>
<polygon fill="#000000" fill-opacity="0.200000" stroke="#000000" stroke-width="2" stroke-opacity="0.200000" points="243.64,-374.77 249.85,-373.43 244.16,-370.61 243.64,-374.77"/>
</g>
<!-- src/app.module.ts -->
<g id="node4" class="node">
<title>src/app.module.ts</title>
<g id="a_node4"><a xlink:href="src/app.module.ts" xlink:title="app.module.ts">
<path fill="#ddfeff" stroke="black" d="M195.5,-327.89C195.5,-327.89 131.5,-327.89 131.5,-327.89 128.5,-327.89 125.5,-324.89 125.5,-321.89 125.5,-321.89 125.5,-315.89 125.5,-315.89 125.5,-312.89 128.5,-309.89 131.5,-309.89 131.5,-309.89 195.5,-309.89 195.5,-309.89 198.5,-309.89 201.5,-312.89 201.5,-315.89 201.5,-315.89 201.5,-321.89 201.5,-321.89 201.5,-324.89 198.5,-327.89 195.5,-327.89"/>
<text text-anchor="start" x="133.5" y="-316.69" font-family="Helvetica,sans-Serif" font-size="9.00">app.module.ts</text>
</a>
</g>
</g>
<!-- src/app.module.ts&#45;&gt;src/app.controller.ts -->
<g id="edge3" class="edge">
<title>src/app.module.ts&#45;&gt;src/app.controller.ts</title>
<path fill="none" stroke="#000000" stroke-width="2" stroke-opacity="0.200000" d="M201.61,-327.75C214.44,-330.81 228.94,-334.27 242.25,-337.45"/>
<polygon fill="#000000" fill-opacity="0.200000" stroke="#000000" stroke-width="2" stroke-opacity="0.200000" points="241.95,-339.53 248.27,-338.88 242.93,-335.45 241.95,-339.53"/>
</g>
<!-- src/app.module.ts&#45;&gt;src/app.service.ts -->
<g id="edge4" class="edge">
<title>src/app.module.ts&#45;&gt;src/app.service.ts</title>
<path fill="none" stroke="#000000" stroke-width="2" stroke-opacity="0.200000" d="M186.65,-327.91C196.52,-332.74 207.75,-339.45 216,-347.89 221.28,-353.29 218.03,-358.26 224,-362.89 229.81,-367.39 236.78,-370.57 243.92,-372.8"/>
<polygon fill="#000000" fill-opacity="0.200000" stroke="#000000" stroke-width="2" stroke-opacity="0.200000" points="243.58,-374.89 249.93,-374.47 244.71,-370.84 243.58,-374.89"/>
</g>
<!-- src/dbconection/dbconection.module.ts -->
<g id="node5" class="node">
<title>src/dbconection/dbconection.module.ts</title>
<g id="a_node5"><a xlink:href="src/dbconection/dbconection.module.ts" xlink:title="dbconection.module.ts">
<path fill="#ddfeff" stroke="black" d="M336,-122.89C336,-122.89 238,-122.89 238,-122.89 235,-122.89 232,-119.89 232,-116.89 232,-116.89 232,-110.89 232,-110.89 232,-107.89 235,-104.89 238,-104.89 238,-104.89 336,-104.89 336,-104.89 339,-104.89 342,-107.89 342,-110.89 342,-110.89 342,-116.89 342,-116.89 342,-119.89 339,-122.89 336,-122.89"/>
<text text-anchor="start" x="240" y="-111.69" font-family="Helvetica,sans-Serif" font-size="9.00">dbconection.module.ts</text>
</a>
</g>
</g>
<!-- src/app.module.ts&#45;&gt;src/dbconection/dbconection.module.ts -->
<g id="edge5" class="edge">
<title>src/app.module.ts&#45;&gt;src/dbconection/dbconection.module.ts</title>
<path fill="none" stroke="#000000" stroke-width="2" stroke-opacity="0.200000" d="M164.32,-309.58C164.26,-278.49 168.52,-177.4 224,-126.89 224.74,-126.22 225.5,-125.58 226.28,-124.97"/>
<polygon fill="#000000" fill-opacity="0.200000" stroke="#000000" stroke-width="2" stroke-opacity="0.200000" points="227.91,-126.41 231.77,-121.36 225.6,-122.9 227.91,-126.41"/>
</g>
<!-- src/doctor/doctor.controller.ts -->
<g id="node6" class="node">
<title>src/doctor/doctor.controller.ts</title>
<g id="a_node6"><a xlink:href="src/doctor/doctor.controller.ts" xlink:title="doctor.controller.ts">
<path fill="#ddfeff" stroke="black" d="M601.5,-272.89C601.5,-272.89 521.5,-272.89 521.5,-272.89 518.5,-272.89 515.5,-269.89 515.5,-266.89 515.5,-266.89 515.5,-260.89 515.5,-260.89 515.5,-257.89 518.5,-254.89 521.5,-254.89 521.5,-254.89 601.5,-254.89 601.5,-254.89 604.5,-254.89 607.5,-257.89 607.5,-260.89 607.5,-260.89 607.5,-266.89 607.5,-266.89 607.5,-269.89 604.5,-272.89 601.5,-272.89"/>
<text text-anchor="start" x="523.5" y="-261.69" font-family="Helvetica,sans-Serif" font-size="9.00">doctor.controller.ts</text>
</a>
</g>
</g>
<!-- src/app.module.ts&#45;&gt;src/doctor/doctor.controller.ts -->
<g id="edge6" class="edge">
<title>src/app.module.ts&#45;&gt;src/doctor/doctor.controller.ts</title>
<path fill="none" stroke="#000000" stroke-width="2" stroke-opacity="0.200000" d="M201.64,-321.96C278.39,-327.76 451.81,-337.87 506,-315.89 524.87,-308.23 540.96,-290.64 550.66,-278.04"/>
<polygon fill="#000000" fill-opacity="0.200000" stroke="#000000" stroke-width="2" stroke-opacity="0.200000" points="552.52,-279.06 554.41,-272.99 549.15,-276.55 552.52,-279.06"/>
</g>
<!-- src/doctor/doctor.module.ts -->
<g id="node7" class="node">
<title>src/doctor/doctor.module.ts</title>
<g id="a_node7"><a xlink:href="src/doctor/doctor.module.ts" xlink:title="doctor.module.ts">
<path fill="#ddfeff" stroke="black" d="M473,-182.89C473,-182.89 399,-182.89 399,-182.89 396,-182.89 393,-179.89 393,-176.89 393,-176.89 393,-170.89 393,-170.89 393,-167.89 396,-164.89 399,-164.89 399,-164.89 473,-164.89 473,-164.89 476,-164.89 479,-167.89 479,-170.89 479,-170.89 479,-176.89 479,-176.89 479,-179.89 476,-182.89 473,-182.89"/>
<text text-anchor="start" x="401" y="-171.69" font-family="Helvetica,sans-Serif" font-size="9.00">doctor.module.ts</text>
</a>
</g>
</g>
<!-- src/app.module.ts&#45;&gt;src/doctor/doctor.module.ts -->
<g id="edge7" class="edge">
<title>src/app.module.ts&#45;&gt;src/doctor/doctor.module.ts</title>
<path fill="none" stroke="#000000" stroke-width="2" stroke-opacity="0.200000" d="M174.94,-309.59C202.61,-285.51 280.95,-220.74 358,-188.89 367.07,-185.14 377.13,-182.31 386.91,-180.19"/>
<polygon fill="#000000" fill-opacity="0.200000" stroke="#000000" stroke-width="2" stroke-opacity="0.200000" points="387.49,-182.21 392.95,-178.95 386.65,-178.1 387.49,-182.21"/>
</g>
<!-- src/doctor/doctor.service.ts -->
<g id="node8" class="node">
<title>src/doctor/doctor.service.ts</title>
<g id="a_node8"><a xlink:href="src/doctor/doctor.service.ts" xlink:title="doctor.service.ts">
<path fill="#ddfeff" stroke="black" d="M597,-212.89C597,-212.89 526,-212.89 526,-212.89 523,-212.89 520,-209.89 520,-206.89 520,-206.89 520,-200.89 520,-200.89 520,-197.89 523,-194.89 526,-194.89 526,-194.89 597,-194.89 597,-194.89 600,-194.89 603,-197.89 603,-200.89 603,-200.89 603,-206.89 603,-206.89 603,-209.89 600,-212.89 597,-212.89"/>
<text text-anchor="start" x="528" y="-201.69" font-family="Helvetica,sans-Serif" font-size="9.00">doctor.service.ts</text>
</a>
</g>
</g>
<!-- src/app.module.ts&#45;&gt;src/doctor/doctor.service.ts -->
<g id="edge8" class="edge">
<title>src/app.module.ts&#45;&gt;src/doctor/doctor.service.ts</title>
<path fill="none" stroke="#000000" stroke-width="2" stroke-opacity="0.200000" d="M201.55,-318.74C287.66,-318.23 494.86,-315.96 506,-305.89 524.98,-288.74 502.4,-271.69 514,-248.89 520.57,-235.98 532.31,-224.66 542.35,-216.61"/>
<polygon fill="#000000" fill-opacity="0.200000" stroke="#000000" stroke-width="2" stroke-opacity="0.200000" points="543.66,-218.25 547.12,-212.92 541.08,-214.93 543.66,-218.25"/>
</g>
<!-- src/especialidad/especialidad.entity.ts -->
<g id="node12" class="node">
<title>src/especialidad/especialidad.entity.ts</title>
<g id="a_node12"><a xlink:href="src/especialidad/especialidad.entity.ts" xlink:title="especialidad.entity.ts">
<path fill="#ddfeff" stroke="black" d="M846.5,-52.89C846.5,-52.89 755.5,-52.89 755.5,-52.89 752.5,-52.89 749.5,-49.89 749.5,-46.89 749.5,-46.89 749.5,-40.89 749.5,-40.89 749.5,-37.89 752.5,-34.89 755.5,-34.89 755.5,-34.89 846.5,-34.89 846.5,-34.89 849.5,-34.89 852.5,-37.89 852.5,-40.89 852.5,-40.89 852.5,-46.89 852.5,-46.89 852.5,-49.89 849.5,-52.89 846.5,-52.89"/>
<text text-anchor="start" x="757.5" y="-41.69" font-family="Helvetica,sans-Serif" font-size="9.00">especialidad.entity.ts</text>
</a>
</g>
</g>
<!-- src/dbconection/dbconection.module.ts&#45;&gt;src/especialidad/especialidad.entity.ts -->
<g id="edge9" class="edge">
<title>src/dbconection/dbconection.module.ts&#45;&gt;src/especialidad/especialidad.entity.ts</title>
<path fill="none" stroke="#000000" stroke-width="2" stroke-opacity="0.200000" d="M292.59,-104.69C302.01,-87 325.4,-48.68 358,-33.89 497.14,29.25 687.15,-11.85 764.78,-33.26"/>
<polygon fill="#000000" fill-opacity="0.200000" stroke="#000000" stroke-width="2" stroke-opacity="0.200000" points="764.27,-35.29 770.62,-34.89 765.4,-31.25 764.27,-35.29"/>
</g>
<!-- src/doctor/doctor.entity -->
<g id="node13" class="node">
<title>src/doctor/doctor.entity</title>
<g id="a_node13"><a xlink:title="doctor.entity">
<path fill="#ffffcc" stroke="red" d="M462.5,-152.89C462.5,-152.89 409.5,-152.89 409.5,-152.89 406.5,-152.89 403.5,-149.89 403.5,-146.89 403.5,-146.89 403.5,-140.89 403.5,-140.89 403.5,-137.89 406.5,-134.89 409.5,-134.89 409.5,-134.89 462.5,-134.89 462.5,-134.89 465.5,-134.89 468.5,-137.89 468.5,-140.89 468.5,-140.89 468.5,-146.89 468.5,-146.89 468.5,-149.89 465.5,-152.89 462.5,-152.89"/>
<text text-anchor="start" x="411.5" y="-141.69" font-family="Helvetica,sans-Serif" font-size="9.00" fill="red">doctor.entity</text>
</a>
</g>
</g>
<!-- src/dbconection/dbconection.module.ts&#45;&gt;src/doctor/doctor.entity -->
<g id="edge10" class="edge">
<title>src/dbconection/dbconection.module.ts&#45;&gt;src/doctor/doctor.entity</title>
<path fill="none" stroke="#000000" stroke-width="2" stroke-opacity="0.200000" d="M332.1,-122.89C352.8,-127.11 377.21,-132.09 397.07,-136.15"/>
<polygon fill="#000000" fill-opacity="0.200000" stroke="#000000" stroke-width="2" stroke-opacity="0.200000" points="396.77,-138.23 403.07,-137.37 397.61,-134.11 396.77,-138.23"/>
</g>
<!-- src/genero/genero.entity -->
<g id="node14" class="node">
<title>src/genero/genero.entity</title>
<g id="a_node14"><a xlink:title="genero.entity">
<path fill="#ffffcc" stroke="red" d="M464.5,-92.89C464.5,-92.89 407.5,-92.89 407.5,-92.89 404.5,-92.89 401.5,-89.89 401.5,-86.89 401.5,-86.89 401.5,-80.89 401.5,-80.89 401.5,-77.89 404.5,-74.89 407.5,-74.89 407.5,-74.89 464.5,-74.89 464.5,-74.89 467.5,-74.89 470.5,-77.89 470.5,-80.89 470.5,-80.89 470.5,-86.89 470.5,-86.89 470.5,-89.89 467.5,-92.89 464.5,-92.89"/>
<text text-anchor="start" x="409.5" y="-81.69" font-family="Helvetica,sans-Serif" font-size="9.00" fill="red">genero.entity</text>
</a>
</g>
</g>
<!-- src/dbconection/dbconection.module.ts&#45;&gt;src/genero/genero.entity -->
<g id="edge11" class="edge">
<title>src/dbconection/dbconection.module.ts&#45;&gt;src/genero/genero.entity</title>
<path fill="none" stroke="#000000" stroke-width="2" stroke-opacity="0.200000" d="M332.1,-104.89C352.18,-100.79 375.77,-95.98 395.29,-91.99"/>
<polygon fill="#000000" fill-opacity="0.200000" stroke="#000000" stroke-width="2" stroke-opacity="0.200000" points="395.75,-94.04 401.21,-90.78 394.91,-89.93 395.75,-94.04"/>
</g>
<!-- src/compartida/responsetoreturn -->
<g id="node10" class="node">
<title>src/compartida/responsetoreturn</title>
<g id="a_node10"><a xlink:title="responsetoreturn">
<path fill="#ffffcc" stroke="red" d="M714.5,-392.89C714.5,-392.89 638.5,-392.89 638.5,-392.89 635.5,-392.89 632.5,-389.89 632.5,-386.89 632.5,-386.89 632.5,-380.89 632.5,-380.89 632.5,-377.89 635.5,-374.89 638.5,-374.89 638.5,-374.89 714.5,-374.89 714.5,-374.89 717.5,-374.89 720.5,-377.89 720.5,-380.89 720.5,-380.89 720.5,-386.89 720.5,-386.89 720.5,-389.89 717.5,-392.89 714.5,-392.89"/>
<text text-anchor="start" x="640.5" y="-381.69" font-family="Helvetica,sans-Serif" font-size="9.00" fill="red">responsetoreturn</text>
</a>
</g>
</g>
<!-- src/doctor/doctor.controller.ts&#45;&gt;src/compartida/responsetoreturn -->
<g id="edge13" class="edge">
<title>src/doctor/doctor.controller.ts&#45;&gt;src/compartida/responsetoreturn</title>
<path fill="none" stroke="#000000" stroke-width="2" stroke-opacity="0.200000" d="M564.81,-273.08C570.46,-293.57 586.92,-343.21 619.5,-368.89 621.8,-370.7 624.3,-372.3 626.93,-373.7"/>
<polygon fill="#000000" fill-opacity="0.200000" stroke="#000000" stroke-width="2" stroke-opacity="0.200000" points="626.14,-375.65 632.47,-376.32 627.94,-371.85 626.14,-375.65"/>
</g>
<!-- src/doctor/doctor.module.ts&#45;&gt;src/doctor/doctor.controller.ts -->
<g id="edge18" class="edge">
<title>src/doctor/doctor.module.ts&#45;&gt;src/doctor/doctor.controller.ts</title>
<path fill="none" stroke="#000000" stroke-width="2" stroke-opacity="0.200000" d="M479.22,-175.64C489.04,-177.91 498.73,-181.95 506,-188.89 515.98,-198.42 507.01,-206.99 514,-218.89 521.27,-231.26 532.86,-242.49 542.65,-250.64"/>
<polygon fill="#000000" fill-opacity="0.200000" stroke="#000000" stroke-width="2" stroke-opacity="0.200000" points="541.59,-252.47 547.58,-254.6 544.22,-249.2 541.59,-252.47"/>
</g>
<!-- src/doctor/doctor.module.ts&#45;&gt;src/doctor/doctor.service.ts -->
<g id="edge21" class="edge">
<title>src/doctor/doctor.module.ts&#45;&gt;src/doctor/doctor.service.ts</title>
<path fill="none" stroke="#000000" stroke-width="2" stroke-opacity="0.200000" d="M479.05,-182.65C487.97,-184.61 497.31,-186.75 506,-188.89 511.46,-190.23 517.2,-191.72 522.83,-193.23"/>
<polygon fill="#000000" fill-opacity="0.200000" stroke="#000000" stroke-width="2" stroke-opacity="0.200000" points="522.54,-195.33 528.88,-194.87 523.63,-191.27 522.54,-195.33"/>
</g>
<!-- src/doctor/doctor.entity.ts -->
<g id="node16" class="node">
<title>src/doctor/doctor.entity.ts</title>
<g id="a_node16"><a xlink:href="src/doctor/doctor.entity.ts" xlink:title="doctor.entity.ts">
<path fill="#ddfeff" stroke="black" d="M708,-160.89C708,-160.89 645,-160.89 645,-160.89 642,-160.89 639,-157.89 639,-154.89 639,-154.89 639,-148.89 639,-148.89 639,-145.89 642,-142.89 645,-142.89 645,-142.89 708,-142.89 708,-142.89 711,-142.89 714,-145.89 714,-148.89 714,-148.89 714,-154.89 714,-154.89 714,-157.89 711,-160.89 708,-160.89"/>
<text text-anchor="start" x="647" y="-149.69" font-family="Helvetica,sans-Serif" font-size="9.00">doctor.entity.ts</text>
</a>
</g>
</g>
<!-- src/doctor/doctor.module.ts&#45;&gt;src/doctor/doctor.entity.ts -->
<g id="edge19" class="edge">
<title>src/doctor/doctor.module.ts&#45;&gt;src/doctor/doctor.entity.ts</title>
<path fill="none" stroke="#000000" stroke-width="2" stroke-opacity="0.200000" d="M477.18,-164.89C488.99,-162.56 501.96,-160.31 514,-158.89 553.98,-154.15 599.86,-152.53 632.47,-152.01"/>
<polygon fill="#000000" fill-opacity="0.200000" stroke="#000000" stroke-width="2" stroke-opacity="0.200000" points="632.84,-154.11 638.81,-151.92 632.79,-149.91 632.84,-154.11"/>
</g>
<!-- src/doctor/doctor.repository.ts -->
<g id="node20" class="node">
<title>src/doctor/doctor.repository.ts</title>
<g id="a_node20"><a xlink:href="src/doctor/doctor.repository.ts" xlink:title="doctor.repository.ts">
<path fill="#ddfeff" stroke="black" d="M603,-182.89C603,-182.89 520,-182.89 520,-182.89 517,-182.89 514,-179.89 514,-176.89 514,-176.89 514,-170.89 514,-170.89 514,-167.89 517,-164.89 520,-164.89 520,-164.89 603,-164.89 603,-164.89 606,-164.89 609,-167.89 609,-170.89 609,-170.89 609,-176.89 609,-176.89 609,-179.89 606,-182.89 603,-182.89"/>
<text text-anchor="start" x="522" y="-171.69" font-family="Helvetica,sans-Serif" font-size="9.00">doctor.repository.ts</text>
</a>
</g>
</g>
<!-- src/doctor/doctor.module.ts&#45;&gt;src/doctor/doctor.repository.ts -->
<g id="edge20" class="edge">
<title>src/doctor/doctor.module.ts&#45;&gt;src/doctor/doctor.repository.ts</title>
<path fill="none" stroke="#000000" stroke-width="2" stroke-opacity="0.200000" d="M479.16,-173.89C488.33,-173.89 498.14,-173.89 507.67,-173.89"/>
<polygon fill="#000000" fill-opacity="0.200000" stroke="#000000" stroke-width="2" stroke-opacity="0.200000" points="507.88,-175.99 513.88,-173.89 507.88,-171.79 507.88,-175.99"/>
</g>
<!-- src/busqueda/IBusqueda.ts -->
<g id="node9" class="node">
<title>src/busqueda/IBusqueda.ts</title>
<g id="a_node9"><a xlink:href="src/busqueda/IBusqueda.ts" xlink:title="IBusqueda.ts">
<path fill="#ccffcc" stroke="black" d="M89,-380.89C89,-380.89 30,-380.89 30,-380.89 27,-380.89 24,-377.89 24,-374.89 24,-374.89 24,-368.89 24,-368.89 24,-365.89 27,-362.89 30,-362.89 30,-362.89 89,-362.89 89,-362.89 92,-362.89 95,-365.89 95,-368.89 95,-368.89 95,-374.89 95,-374.89 95,-377.89 92,-380.89 89,-380.89"/>
<text text-anchor="start" x="32" y="-369.69" font-family="Helvetica,sans-Serif" font-size="9.00">IBusqueda.ts</text>
</a>
</g>
</g>
<!-- src/compartida/responsetoreturn.ts -->
<g id="node11" class="node">
<title>src/compartida/responsetoreturn.ts</title>
<g id="a_node11"><a xlink:href="src/compartida/responsetoreturn.ts" xlink:title="responsetoreturn.ts">
<path fill="#ccffcc" stroke="black" d="M719.5,-362.89C719.5,-362.89 633.5,-362.89 633.5,-362.89 630.5,-362.89 627.5,-359.89 627.5,-356.89 627.5,-356.89 627.5,-350.89 627.5,-350.89 627.5,-347.89 630.5,-344.89 633.5,-344.89 633.5,-344.89 719.5,-344.89 719.5,-344.89 722.5,-344.89 725.5,-347.89 725.5,-350.89 725.5,-350.89 725.5,-356.89 725.5,-356.89 725.5,-359.89 722.5,-362.89 719.5,-362.89"/>
<text text-anchor="start" x="635.5" y="-351.69" font-family="Helvetica,sans-Serif" font-size="9.00">responsetoreturn.ts</text>
</a>
</g>
</g>
<!-- src/especialidad/especialidad.model.ts -->
<g id="node23" class="node">
<title>src/especialidad/especialidad.model.ts</title>
<g id="a_node23"><a xlink:href="src/especialidad/especialidad.model.ts" xlink:title="especialidad.model.ts">
<path fill="#ddfeff" stroke="black" d="M967.5,-52.89C967.5,-52.89 871.5,-52.89 871.5,-52.89 868.5,-52.89 865.5,-49.89 865.5,-46.89 865.5,-46.89 865.5,-40.89 865.5,-40.89 865.5,-37.89 868.5,-34.89 871.5,-34.89 871.5,-34.89 967.5,-34.89 967.5,-34.89 970.5,-34.89 973.5,-37.89 973.5,-40.89 973.5,-40.89 973.5,-46.89 973.5,-46.89 973.5,-49.89 970.5,-52.89 967.5,-52.89"/>
<text text-anchor="start" x="873.5" y="-41.69" font-family="Helvetica,sans-Serif" font-size="9.00">especialidad.model.ts</text>
</a>
</g>
</g>
<!-- src/especialidad/especialidad.entity.ts&#45;&gt;src/especialidad/especialidad.model.ts -->
<g id="edge24" class="edge">
<title>src/especialidad/especialidad.entity.ts&#45;&gt;src/especialidad/especialidad.model.ts</title>
<path fill="none" stroke="#000000" stroke-width="2" stroke-opacity="0.200000" d="M852.76,-43.89C854.84,-43.89 856.94,-43.89 859.04,-43.89"/>
<polygon fill="#000000" fill-opacity="0.200000" stroke="#000000" stroke-width="2" stroke-opacity="0.200000" points="859.34,-45.99 865.34,-43.89 859.34,-41.79 859.34,-45.99"/>
</g>
<!-- src/doctor/doctor.controller.spec.ts -->
<g id="node15" class="node">
<title>src/doctor/doctor.controller.spec.ts</title>
<g id="a_node15"><a xlink:href="src/doctor/doctor.controller.spec.ts" xlink:title="doctor.controller.spec.ts">
<path fill="#ddfeff" stroke="black" d="M487.5,-242.89C487.5,-242.89 384.5,-242.89 384.5,-242.89 381.5,-242.89 378.5,-239.89 378.5,-236.89 378.5,-236.89 378.5,-230.89 378.5,-230.89 378.5,-227.89 381.5,-224.89 384.5,-224.89 384.5,-224.89 487.5,-224.89 487.5,-224.89 490.5,-224.89 493.5,-227.89 493.5,-230.89 493.5,-230.89 493.5,-236.89 493.5,-236.89 493.5,-239.89 490.5,-242.89 487.5,-242.89"/>
<text text-anchor="start" x="386.5" y="-231.69" font-family="Helvetica,sans-Serif" font-size="9.00">doctor.controller.spec.ts</text>
</a>
</g>
</g>
<!-- src/doctor/doctor.controller.spec.ts&#45;&gt;src/doctor/doctor.controller.ts -->
<g id="edge12" class="edge">
<title>src/doctor/doctor.controller.spec.ts&#45;&gt;src/doctor/doctor.controller.ts</title>
<path fill="none" stroke="#000000" stroke-width="2" stroke-opacity="0.200000" d="M484.26,-242.92C491.56,-244.48 499,-246.15 506,-247.89 512.38,-249.47 519.12,-251.31 525.62,-253.17"/>
<polygon fill="#000000" fill-opacity="0.200000" stroke="#000000" stroke-width="2" stroke-opacity="0.200000" points="525.14,-255.22 531.49,-254.87 526.32,-251.18 525.14,-255.22"/>
</g>
<!-- src/doctor/doctor.entity.ts&#45;&gt;src/genero/genero.entity -->
<g id="edge16" class="edge">
<title>src/doctor/doctor.entity.ts&#45;&gt;src/genero/genero.entity</title>
<path fill="none" stroke="#000000" stroke-width="2" stroke-opacity="0.200000" d="M643.7,-142.82C599.88,-130.33 521.09,-107.86 474.47,-94.57"/>
<polygon fill="#000000" fill-opacity="0.200000" stroke="#000000" stroke-width="2" stroke-opacity="0.200000" points="475.02,-92.54 468.67,-92.92 473.87,-96.58 475.02,-92.54"/>
</g>
<!-- src/doctor/doctor.model.ts -->
<g id="node17" class="node">
<title>src/doctor/doctor.model.ts</title>
<g id="a_node17"><a xlink:href="src/doctor/doctor.model.ts" xlink:title="doctor.model.ts">
<path fill="#ddfeff" stroke="black" d="M835,-166.89C835,-166.89 767,-166.89 767,-166.89 764,-166.89 761,-163.89 761,-160.89 761,-160.89 761,-154.89 761,-154.89 761,-151.89 764,-148.89 767,-148.89 767,-148.89 835,-148.89 835,-148.89 838,-148.89 841,-151.89 841,-154.89 841,-154.89 841,-160.89 841,-160.89 841,-163.89 838,-166.89 835,-166.89"/>
<text text-anchor="start" x="769" y="-155.69" font-family="Helvetica,sans-Serif" font-size="9.00">doctor.model.ts</text>
</a>
</g>
</g>
<!-- src/doctor/doctor.entity.ts&#45;&gt;src/doctor/doctor.model.ts -->
<g id="edge14" class="edge">
<title>src/doctor/doctor.entity.ts&#45;&gt;src/doctor/doctor.model.ts</title>
<path fill="none" stroke="#000000" stroke-width="2" stroke-opacity="0.200000" d="M714.25,-153.69C726.97,-154.31 741.36,-155.02 754.68,-155.67"/>
<polygon fill="#000000" fill-opacity="0.200000" stroke="#000000" stroke-width="2" stroke-opacity="0.200000" points="754.62,-157.77 760.71,-155.96 754.82,-153.57 754.62,-157.77"/>
</g>
<!-- src/especialidad/especialidad.entity -->
<g id="node18" class="node">
<title>src/especialidad/especialidad.entity</title>
<g id="a_node18"><a xlink:title="especialidad.entity">
<path fill="#ffffcc" stroke="red" d="M841.5,-82.89C841.5,-82.89 760.5,-82.89 760.5,-82.89 757.5,-82.89 754.5,-79.89 754.5,-76.89 754.5,-76.89 754.5,-70.89 754.5,-70.89 754.5,-67.89 757.5,-64.89 760.5,-64.89 760.5,-64.89 841.5,-64.89 841.5,-64.89 844.5,-64.89 847.5,-67.89 847.5,-70.89 847.5,-70.89 847.5,-76.89 847.5,-76.89 847.5,-79.89 844.5,-82.89 841.5,-82.89"/>
<text text-anchor="start" x="762.5" y="-71.69" font-family="Helvetica,sans-Serif" font-size="9.00" fill="red">especialidad.entity</text>
</a>
</g>
</g>
<!-- src/doctor/doctor.entity.ts&#45;&gt;src/especialidad/especialidad.entity -->
<g id="edge15" class="edge">
<title>src/doctor/doctor.entity.ts&#45;&gt;src/especialidad/especialidad.entity</title>
<path fill="none" stroke="#000000" stroke-width="2" stroke-opacity="0.200000" d="M692.03,-142.63C714.07,-128.6 755.97,-101.92 780.59,-86.25"/>
<polygon fill="#000000" fill-opacity="0.200000" stroke="#000000" stroke-width="2" stroke-opacity="0.200000" points="781.93,-87.88 785.86,-82.89 779.67,-84.34 781.93,-87.88"/>
</g>
<!-- src/persona/persona.abstract -->
<g id="node19" class="node">
<title>src/persona/persona.abstract</title>
<g id="a_node19"><a xlink:title="persona.abstract">
<path fill="#ffffcc" stroke="red" d="M956.5,-172.89C956.5,-172.89 882.5,-172.89 882.5,-172.89 879.5,-172.89 876.5,-169.89 876.5,-166.89 876.5,-166.89 876.5,-160.89 876.5,-160.89 876.5,-157.89 879.5,-154.89 882.5,-154.89 882.5,-154.89 956.5,-154.89 956.5,-154.89 959.5,-154.89 962.5,-157.89 962.5,-160.89 962.5,-160.89 962.5,-166.89 962.5,-166.89 962.5,-169.89 959.5,-172.89 956.5,-172.89"/>
<text text-anchor="start" x="884.5" y="-161.69" font-family="Helvetica,sans-Serif" font-size="9.00" fill="red">persona.abstract</text>
</a>
</g>
</g>
<!-- src/doctor/doctor.model.ts&#45;&gt;src/persona/persona.abstract -->
<g id="edge17" class="edge">
<title>src/doctor/doctor.model.ts&#45;&gt;src/persona/persona.abstract</title>
<path fill="none" stroke="#000000" stroke-width="2" stroke-opacity="0.200000" d="M841.12,-159.9C850.53,-160.39 860.7,-160.91 870.47,-161.41"/>
<polygon fill="#000000" fill-opacity="0.200000" stroke="#000000" stroke-width="2" stroke-opacity="0.200000" points="870.39,-163.51 876.49,-161.72 870.61,-159.32 870.39,-163.51"/>
</g>
<!-- src/doctor/doctor.repository.ts&#45;&gt;src/doctor/doctor.entity.ts -->
<g id="edge22" class="edge">
<title>src/doctor/doctor.repository.ts&#45;&gt;src/doctor/doctor.entity.ts</title>
<path fill="none" stroke="#000000" stroke-width="2" stroke-opacity="0.200000" d="M608.79,-164.88C616.75,-163.33 625,-161.72 632.86,-160.19"/>
<polygon fill="#000000" fill-opacity="0.200000" stroke="#000000" stroke-width="2" stroke-opacity="0.200000" points="633.3,-162.24 638.79,-159.04 632.5,-158.12 633.3,-162.24"/>
</g>
<!-- src/doctor/doctor.service.spec.ts -->
<g id="node21" class="node">
<title>src/doctor/doctor.service.spec.ts</title>
<g id="a_node21"><a xlink:href="src/doctor/doctor.service.spec.ts" xlink:title="doctor.service.spec.ts">
<path fill="#ddfeff" stroke="black" d="M483,-212.89C483,-212.89 389,-212.89 389,-212.89 386,-212.89 383,-209.89 383,-206.89 383,-206.89 383,-200.89 383,-200.89 383,-197.89 386,-194.89 389,-194.89 389,-194.89 483,-194.89 483,-194.89 486,-194.89 489,-197.89 489,-200.89 489,-200.89 489,-206.89 489,-206.89 489,-209.89 486,-212.89 483,-212.89"/>
<text text-anchor="start" x="391" y="-201.69" font-family="Helvetica,sans-Serif" font-size="9.00">doctor.service.spec.ts</text>
</a>
</g>
</g>
<!-- src/doctor/doctor.service.spec.ts&#45;&gt;src/doctor/doctor.service.ts -->
<g id="edge23" class="edge">
<title>src/doctor/doctor.service.spec.ts&#45;&gt;src/doctor/doctor.service.ts</title>
<path fill="none" stroke="#000000" stroke-width="2" stroke-opacity="0.200000" d="M489.02,-203.89C497.21,-203.89 505.64,-203.89 513.71,-203.89"/>
<polygon fill="#000000" fill-opacity="0.200000" stroke="#000000" stroke-width="2" stroke-opacity="0.200000" points="513.8,-205.99 519.8,-203.89 513.8,-201.79 513.8,-205.99"/>
</g>
<!-- src/doctor/dtos/especialidad.busqueda.ts -->
<g id="node22" class="node">
<title>src/doctor/dtos/especialidad.busqueda.ts</title>
<g id="a_node22"><a xlink:href="src/doctor/dtos/especialidad.busqueda.ts" xlink:title="especialidad.busqueda.ts">
<path fill="#ccffcc" stroke="black" d="M492,-276.89C492,-276.89 380,-276.89 380,-276.89 377,-276.89 374,-273.89 374,-270.89 374,-270.89 374,-264.89 374,-264.89 374,-261.89 377,-258.89 380,-258.89 380,-258.89 492,-258.89 492,-258.89 495,-258.89 498,-261.89 498,-264.89 498,-264.89 498,-270.89 498,-270.89 498,-273.89 495,-276.89 492,-276.89"/>
<text text-anchor="start" x="382" y="-265.69" font-family="Helvetica,sans-Serif" font-size="9.00">especialidad.busqueda.ts</text>
</a>
</g>
</g>
<!-- src/genero/genero.entity.ts -->
<g id="node24" class="node">
<title>src/genero/genero.entity.ts</title>
<g id="a_node24"><a xlink:href="src/genero/genero.entity.ts" xlink:title="genero.entity.ts">
<path fill="#ddfeff" stroke="black" d="M469.5,-62.89C469.5,-62.89 402.5,-62.89 402.5,-62.89 399.5,-62.89 396.5,-59.89 396.5,-56.89 396.5,-56.89 396.5,-50.89 396.5,-50.89 396.5,-47.89 399.5,-44.89 402.5,-44.89 402.5,-44.89 469.5,-44.89 469.5,-44.89 472.5,-44.89 475.5,-47.89 475.5,-50.89 475.5,-50.89 475.5,-56.89 475.5,-56.89 475.5,-59.89 472.5,-62.89 469.5,-62.89"/>
<text text-anchor="start" x="404.5" y="-51.69" font-family="Helvetica,sans-Serif" font-size="9.00">genero.entity.ts</text>
</a>
</g>
</g>
<!-- src/genero/genero.entity.ts&#45;&gt;src/doctor/doctor.entity -->
<g id="edge26" class="edge">
<title>src/genero/genero.entity.ts&#45;&gt;src/doctor/doctor.entity</title>
<path fill="none" stroke="#000000" stroke-width="2" stroke-opacity="0.200000" d="M396.39,-51.02C378.06,-52.16 359.2,-57.73 354,-74.89 348.72,-92.33 348.72,-98.45 354,-115.89 354.93,-118.96 355.41,-120 358,-121.89 369.45,-130.21 383.94,-135.39 397.32,-138.61"/>
<polygon fill="#000000" fill-opacity="0.200000" stroke="#000000" stroke-width="2" stroke-opacity="0.200000" points="397.06,-140.71 403.37,-139.96 397.97,-136.61 397.06,-140.71"/>
</g>
<!-- src/genero/genero.model.ts -->
<g id="node25" class="node">
<title>src/genero/genero.model.ts</title>
<g id="a_node25"><a xlink:href="src/genero/genero.model.ts" xlink:title="genero.model.ts">
<path fill="#ddfeff" stroke="black" d="M597.5,-62.89C597.5,-62.89 525.5,-62.89 525.5,-62.89 522.5,-62.89 519.5,-59.89 519.5,-56.89 519.5,-56.89 519.5,-50.89 519.5,-50.89 519.5,-47.89 522.5,-44.89 525.5,-44.89 525.5,-44.89 597.5,-44.89 597.5,-44.89 600.5,-44.89 603.5,-47.89 603.5,-50.89 603.5,-50.89 603.5,-56.89 603.5,-56.89 603.5,-59.89 600.5,-62.89 597.5,-62.89"/>
<text text-anchor="start" x="527.5" y="-51.69" font-family="Helvetica,sans-Serif" font-size="9.00">genero.model.ts</text>
</a>
</g>
</g>
<!-- src/genero/genero.entity.ts&#45;&gt;src/genero/genero.model.ts -->
<g id="edge25" class="edge">
<title>src/genero/genero.entity.ts&#45;&gt;src/genero/genero.model.ts</title>
<path fill="none" stroke="#000000" stroke-width="2" stroke-opacity="0.200000" d="M475.74,-53.89C487.65,-53.89 500.9,-53.89 513.32,-53.89"/>
<polygon fill="#000000" fill-opacity="0.200000" stroke="#000000" stroke-width="2" stroke-opacity="0.200000" points="513.34,-55.99 519.34,-53.89 513.34,-51.79 513.34,-55.99"/>
</g>
<!-- src/main.ts -->
<g id="node26" class="node">
<title>src/main.ts</title>
<g id="a_node26"><a xlink:href="src/main.ts" xlink:title="main.ts">
<path fill="#ddfeff" stroke="black" d="M80.5,-327.89C80.5,-327.89 38.5,-327.89 38.5,-327.89 35.5,-327.89 32.5,-324.89 32.5,-321.89 32.5,-321.89 32.5,-315.89 32.5,-315.89 32.5,-312.89 35.5,-309.89 38.5,-309.89 38.5,-309.89 80.5,-309.89 80.5,-309.89 83.5,-309.89 86.5,-312.89 86.5,-315.89 86.5,-315.89 86.5,-321.89 86.5,-321.89 86.5,-324.89 83.5,-327.89 80.5,-327.89"/>
<text text-anchor="start" x="44" y="-316.69" font-family="Helvetica,sans-Serif" font-size="9.00">main.ts</text>
</a>
</g>
</g>
<!-- src/main.ts&#45;&gt;src/app.module.ts -->
<g id="edge27" class="edge">
<title>src/main.ts&#45;&gt;src/app.module.ts</title>
<path fill="none" stroke="#000000" stroke-width="2" stroke-opacity="0.200000" d="M86.5,-318.89C96.46,-318.89 108.11,-318.89 119.26,-318.89"/>
<polygon fill="#000000" fill-opacity="0.200000" stroke="#000000" stroke-width="2" stroke-opacity="0.200000" points="119.38,-320.99 125.38,-318.89 119.38,-316.79 119.38,-320.99"/>
</g>
<!-- src/persona/persona.abstract.ts -->
<g id="node27" class="node">
<title>src/persona/persona.abstract.ts</title>
<g id="a_node27"><a xlink:href="src/persona/persona.abstract.ts" xlink:title="persona.abstract.ts">
<path fill="#ccffcc" stroke="black" d="M961.5,-142.89C961.5,-142.89 877.5,-142.89 877.5,-142.89 874.5,-142.89 871.5,-139.89 871.5,-136.89 871.5,-136.89 871.5,-130.89 871.5,-130.89 871.5,-127.89 874.5,-124.89 877.5,-124.89 877.5,-124.89 961.5,-124.89 961.5,-124.89 964.5,-124.89 967.5,-127.89 967.5,-130.89 967.5,-130.89 967.5,-136.89 967.5,-136.89 967.5,-139.89 964.5,-142.89 961.5,-142.89"/>
<text text-anchor="start" x="879.5" y="-131.69" font-family="Helvetica,sans-Serif" font-size="9.00">persona.abstract.ts</text>
</a>
</g>
</g>
</g>
</svg>
